<svg xmlns="http://www.w3.org/2000/svg" viewBox="0 0 100 125">
  <!-- Silhouette of a woman in red -->
  <path d="M50,10 C45,10 40,15 40,20 C40,25 45,30 45,35 C45,40 40,45 40,50 C40,55 45,60 45,65 C45,70 40,75 40,80 C40,85 45,90 50,90 C55,90 60,85 60,80 C60,75 55,70 55,65 C55,60 60,55 60,50 C60,45 55,40 55,35 C55,30 60,25 60,20 C60,15 55,10 50,10 Z" 
        fill="#800020" stroke="white" stroke-width="1" />
  
  <!-- Stylized face -->
  <circle cx="50" cy="25" r="5" fill="white" />
  <path d="M45,30 C45,35 55,35 55,30" fill="none" stroke="white" stroke-width="1" />
  
  <!-- Decorative elements -->
  <path d="M30,50 C35,55 40,55 45,50" fill="none" stroke="white" stroke-width="1" />
  <path d="M55,50 C60,55 65,55 70,50" fill="none" stroke="white" stroke-width="1" />
  
  <!-- Background elements -->
  <circle cx="20" cy="20" r="2" fill="white" />
  <circle cx="80" cy="20" r="2" fill="white" />
  <circle cx="20" cy="80" r="2" fill="white" />
  <circle cx="80" cy="80" r="2" fill="white" />
</svg>