<?xml version="1.0" encoding="UTF-8"?>
<svg xmlns="http://www.w3.org/2000/svg" viewBox="0 0 3000 1000" role="img" aria-labelledby="title desc">
  <title id="title">Out to the Other Side — Song Header (Pop Song Summer)</title>
  <desc id="desc">Night-to-dawn gradient, receding highway into a glowing horizon, dashed lane marks, twin light trails, and a faint sun-insignia rising at the vanishing point. Designed to sit quietly behind a heading.</desc>
  <defs>
    <linearGradient id="sky" x1="0%" y1="0%" x2="0%" y2="100%">
      <stop offset="0%"   stop-color="#0c1024"/>
      <stop offset="60%"  stop-color="#0a0f1f"/>
      <stop offset="100%" stop-color="#0a0c14"/>
    </linearGradient>
    <radialGradient id="horizon" cx="50%" cy="58%" r="40%">
      <stop offset="0%"   stop-color="rgba(255,220,150,0.40)"/>
      <stop offset="100%" stop-color="rgba(255,180,110,0.00)"/>
    </radialGradient>
    <radialGradient id="bokehA" cx="50%" cy="50%" r="50%">
      <stop offset="0%" stop-color="rgba(180,150,255,0.35)"/>
      <stop offset="100%" stop-color="rgba(180,150,255,0)"/>
    </radialGradient>
    <radialGradient id="bokehB" cx="50%" cy="50%" r="50%">
      <stop offset="0%" stop-color="rgba(255,170,110,0.35)"/>
      <stop offset="100%" stop-color="rgba(255,170,110,0)"/>
    </radialGradient>
    <radialGradient id="sun" cx="50%" cy="50%" r="60%">
      <stop offset="0%" stop-color="#ffe789"/>
      <stop offset="70%" stop-color="#d6af37"/>
      <stop offset="100%" stop-color="rgba(168,122,34,0)"/>
    </radialGradient>
    <filter id="soft" x="-50%" y="-50%" width="200%" height="200%">
      <feGaussianBlur stdDeviation="10"/>
    </filter>
  </defs>

  <!-- Background -->
  <rect width="3000" height="1000" fill="url(#sky)"/>
  <ellipse cx="1500" cy="580" rx="900" ry="360" fill="url(#horizon)"/>

  <!-- Road -->
  <path d="M0,1000 L0,920 L1100,760 L1500,610 L1900,760 L3000,920 L3000,1000 Z" fill="#0b0f1b" opacity="0.95"/>

  <!-- Center dashed line (minimal perspective) -->
  <g fill="#f4e7c8" opacity="0.7">
    <rect x="1488" y="630" width="24" height="20" rx="6"/>
    <rect x="1486" y="682" width="28" height="18" rx="6"/>
    <rect x="1484" y="736" width="32" height="18" rx="6"/>
    <rect x="1480" y="792" width="38" height="18" rx="6"/>
    <rect x="1476" y="850" width="44" height="18" rx="6"/>
    <rect x="1470" y="910" width="52" height="18" rx="6"/>
  </g>

  <!-- Light trails -->
  <g stroke-linecap="round" fill="none">
    <path d="M940,840 C1180,760 1340,700 1500,640" stroke="#7fc7ff" stroke-width="8" opacity="0.85"/>
    <path d="M2060,840 C1820,760 1660,700 1500,640" stroke="#ffd58a" stroke-width="6" opacity="0.70"/>
  </g>

  <!-- Sun-insignia at vanishing point -->
  <g transform="translate(1500,610)" opacity="0.30">
    <circle cx="0" cy="0" r="72" fill="url(#sun)" filter="url(#soft)"/>
    <g stroke="#d6af37" stroke-linecap="round" stroke-width="8">
      <line x1="0" y1="-96" x2="0" y2="-64"/>
      <line x1="0" y1="64"  x2="0" y2="96"/>
      <line x1="-96" y1="0" x2="-64" y2="0"/>
      <line x1="64" y1="0"  x2="96" y2="0"/>
    </g>
  </g>

  <!-- Bokeh -->
  <g opacity="0.8">
    <circle cx="520" cy="520" r="12" fill="url(#bokehA)"/>
    <circle cx="880" cy="580" r="10" fill="url(#bokehB)"/>
    <circle cx="2060" cy="520" r="12" fill="url(#bokehA)"/>
    <circle cx="2380" cy="580" r="10" fill="url(#bokehB)"/>
    <circle cx="2600" cy="520" r="14" fill="url(#bokehA)"/>
  </g>

  <!-- Bottom fade for title legibility -->
  <linearGradient id="fade" x1="0%" y1="0%" x2="0%" y2="100%">
    <stop offset="0%" stop-color="rgba(0,0,0,0)"/>
    <stop offset="100%" stop-color="rgba(0,0,0,0.60)"/>
  </linearGradient>
  <rect x="0" y="720" width="3000" height="280" fill="url(#fade)"/>
</svg>
