<?xml version="1.0" encoding="UTF-8"?>
<svg xmlns="http://www.w3.org/2000/svg" viewBox="0 0 1920 1080" role="img" aria-labelledby="title desc">
  <title id="title">Patch Over Heart (Receipt Kept) — Pop Song Summer</title>
  <desc id="desc">Close-up of a jacket chest: denim texture, pocket flap, gold-thread stitching. Over the heart, a round velvet patch with the sun insignia glows faintly. A small thermal receipt is pinned beneath the patch, stamped KEEP in red. Amber horizon vibe.</desc>
  <defs>
    <linearGradient id="sky" x1="0%" y1="0%" x2="0%" y2="100%">
      <stop offset="0%"   stop-color="#0b0c16"/>
      <stop offset="60%"  stop-color="#0a0a12"/>
      <stop offset="100%" stop-color="#090910"/>
    </linearGradient>
    <linearGradient id="haze" x1="0%" y1="0%" x2="0%" y2="100%">
      <stop offset="0%"   stop-color="rgba(255,150,90,0.0)"/>
      <stop offset="100%" stop-color="rgba(255,130,80,0.26)"/>
    </linearGradient>
    <radialGradient id="vignette" cx="50%" cy="50%" r="80%">
      <stop offset="60%" stop-color="rgba(0,0,0,0)"/>
      <stop offset="100%" stop-color="rgba(0,0,0,0.82)"/>
    </radialGradient>
    <filter id="soft" x="-50%" y="-50%" width="200%" height="200%"><feGaussianBlur stdDeviation="8"/></filter>
    <radialGradient id="gold" cx="50%" cy="50%" r="60%">
      <stop offset="0%" stop-color="#ffe789"/>
      <stop offset="70%" stop-color="#d6af37"/>
      <stop offset="100%" stop-color="rgba(168,122,34,0)"/>
    </radialGradient>
    <pattern id="denim" width="8" height="8" patternUnits="userSpaceOnUse">
      <rect width="8" height="8" fill="#0f1220"/>
      <path d="M0,8 L8,0" stroke="#13182a" stroke-width="1"/>
      <path d="M0,0 L8,8" stroke="#0c0f1d" stroke-width="1"/>
    </pattern>
  </defs>
  <rect width="1920" height="520" fill="url(#sky)"/>
  <rect width="1920" height="200" fill="url(#haze)"/>
  <rect x="0" y="520" width="1920" height="560" fill="url(#denim)"/>
  <path d="M240,540 C520,680 620,900 620,1080" stroke="#1a2036" stroke-width="12" fill="none" />
  <g transform="translate(920,720)">
    <path d="M0,0 L380,0 L360,160 L20,160 Z" fill="#10152a" stroke="#2b3355" stroke-width="4"/>
    <path d="M0,0 L380,0 L340,-60 L40,-60 Z" fill="#0f1426" stroke="#2b3355" stroke-width="4"/>
    <g stroke="#d6af37" stroke-width="2" stroke-linecap="round" opacity="0.8">
      <path d="M10,6 L370,6" stroke-dasharray="6 6"/>
      <path d="M8,156 L352,156" stroke-dasharray="6 6"/>
      <path d="M18,-56 L362,-56" stroke-dasharray="6 6"/>
      <path d="M6,8 L6,150" stroke-dasharray="6 6"/>
      <path d="M366,8 L346,150" stroke-dasharray="6 6"/>
    </g>
  </g>
  <g transform="translate(760,640)">
    <circle cx="0" cy="0" r="110" fill="#1a0f18" stroke="#2e1a28" stroke-width="6"/>
    <circle cx="0" cy="0" r="90" fill="none" stroke="rgba(255,180,220,0.25)" stroke-width="12"/>
    <circle cx="0" cy="0" r="40" fill="url(#gold)" filter="url(#soft)" opacity="0.95"/>
    <g stroke="#d6af37" stroke-linecap="round" stroke-width="10">
      <line x1="0" y1="-84" x2="0" y2="-48"/>
      <line x1="0" y1="48" x2="0" y2="84"/>
      <line x1="-84" y1="0" x2="-48" y2="0"/>
      <line x1="48" y1="0" x2="84" y2="0"/>
    </g>
    <g stroke="#d6af37" stroke-width="3" opacity="0.85">
      <path d="M-110,0 A110,110 0 0 1 110,0" stroke-dasharray="8 10" fill="none"/>
      <path d="M110,0 A110,110 0 0 1 -110,0" stroke-dasharray="8 10" fill="none"/>
    </g>
  </g>
  <g transform="translate(790,710) rotate(-12)">
    <rect x="0" y="0" width="300" height="380" rx="8" fill="#f7f7fb" stroke="#d8d8e2"/>
    <rect x="18" y="24" width="220" height="16" fill="#1a1a22" opacity="0.8"/>
    <rect x="18" y="48" width="160" height="10" fill="#606070" opacity="0.8"/>
    <g fill="#9a9aaa" opacity="0.9">
      <rect x="18" y="86" width="240" height="8"/>
      <rect x="18" y="108" width="210" height="8"/>
      <rect x="18" y="130" width="230" height="8"/>
      <rect x="18" y="152" width="170" height="8"/>
      <rect x="18" y="174" width="230" height="8"/>
    </g>
    <rect x="18" y="320" width="190" height="26" fill="#111116"/>
    <g fill="#ececf6">
      <rect x="24" y="324" width="3" height="18"/>
      <rect x="30" y="324" width="7" height="18"/>
      <rect x="41" y="324" width="2" height="18"/>
      <rect x="47" y="324" width="6" height="18"/>
      <rect x="57" y="324" width="2" height="18"/>
      <rect x="63" y="324" width="8" height="18"/>
      <rect x="75" y="324" width="2" height="18"/>
      <rect x="81" y="324" width="6" height="18"/>
    </g>
    <g transform="translate(140,260) rotate(-8)" opacity="0.9">
      <rect x="-80" y="-22" width="160" height="44" rx="6" fill="none" stroke="#ff6a6a" stroke-width="6"/>
      <text x="0" y="10" text-anchor="middle" font-family="monospace" font-size="34" fill="#ff6a6a">KEEP</text>
    </g>
    <circle cx="260" cy="30" r="10" fill="#b0b6c8" stroke="#e8ebf5"/>
    <line x1="250" y1="30" x2="120" y2="80" stroke="#b0b6c8" stroke-width="3"/>
  </g>
  <path d="M720,720 C700,780 700,860 720,920" stroke="#d6af37" stroke-width="2" opacity="0.6" stroke-dasharray="6 8" fill="none"/>
  <rect width="1920" height="1080" fill="url(#vignette)"/>
</svg>
