<?xml version="1.0" encoding="UTF-8"?>
<svg xmlns="http://www.w3.org/2000/svg" viewBox="0 0 1600 2000" role="img" aria-labelledby="title desc">
  <title id="title">Woman in Red (Archetype) — Pop Song Summer</title>
  <desc id="desc">Stylized portrait of a woman in a red velvet coat under urban neon; sun insignia on her cuff; subtle motion blur; sodium/gold and magenta spill.</desc>

  <defs>
    <!-- Background gradient -->
    <linearGradient id="bg" x1="0%" y1="0%" x2="0%" y2="100%">
      <stop offset="0%"  stop-color="#0a0b12"/>
      <stop offset="60%" stop-color="#0a0810"/>
      <stop offset="100%" stop-color="#08060c"/>
    </linearGradient>

    <!-- Neon spills -->
    <radialGradient id="neonL" cx="0%" cy="35%" r="65%">
      <stop offset="0%" stop-color="rgba(255,0,180,0.35)"/>
      <stop offset="100%" stop-color="rgba(255,0,180,0)"/>
    </radialGradient>
    <radialGradient id="neonR" cx="100%" cy="65%" r="65%">
      <stop offset="0%" stop-color="rgba(255,190,70,0.35)"/>
      <stop offset="100%" stop-color="rgba(255,190,70,0)"/>
    </radialGradient>

    <!-- Bokeh dots -->
    <filter id="bokehBlur" x="-50%" y="-50%" width="200%" height="200%">
      <feGaussianBlur stdDeviation="6"/>
    </filter>

    <!-- Coat gradient -->
    <linearGradient id="coatGrad" x1="0%" y1="0%" x2="0%" y2="100%">
      <stop offset="0%" stop-color="#a3082c"/>
      <stop offset="60%" stop-color="#7a0625"/>
      <stop offset="100%" stop-color="#4a0416"/>
    </linearGradient>
    <linearGradient id="coatSheen" x1="0%" y1="0%" x2="0%" y2="100%">
      <stop offset="0%" stop-color="rgba(255,120,160,0.35)"/>
      <stop offset="70%" stop-color="rgba(255,120,160,0.06)"/>
      <stop offset="100%" stop-color="rgba(0,0,0,0)"/>
    </linearGradient>

    <!-- Motion ghost -->
    <filter id="motion" x="-20%" y="-20%" width="140%" height="140%">
      <feOffset dx="-14" dy="0" in="SourceGraphic" result="off"/>
      <feGaussianBlur in="off" stdDeviation="10" result="blur"/>
      <feColorMatrix in="blur" type="matrix"
        values="1 0 0 0 0
                0 1 0 0 0
                0 0 1 0 0
                0 0 0 0.35 0" />
      <feMerge>
        <feMergeNode in="blur"/>
        <feMergeNode in="SourceGraphic"/>
      </feMerge>
    </filter>

    <!-- Sun insignia -->
    <radialGradient id="gold" cx="50%" cy="50%" r="60%">
      <stop offset="0%" stop-color="#ffe789"/>
      <stop offset="65%" stop-color="#d6af37"/>
      <stop offset="100%" stop-color="#a87a22"/>
    </radialGradient>
    <filter id="glow" x="-50%" y="-50%" width="200%" height="200%">
      <feGaussianBlur stdDeviation="4"/>
    </filter>

    <!-- Vignette -->
    <radialGradient id="vignette" cx="50%" cy="50%" r="80%">
      <stop offset="60%" stop-color="rgba(0,0,0,0)"/>
      <stop offset="100%" stop-color="rgba(0,0,0,0.75)"/>
    </radialGradient>
  </defs>

  <!-- Background + neon -->
  <rect width="1600" height="2000" fill="url(#bg)"/>
  <rect width="1600" height="2000" fill="url(#neonL)"/>
  <rect width="1600" height="2000" fill="url(#neonR)"/>

  <!-- Bokeh lights -->
  <g filter="url(#bokehBlur)" opacity="0.35">
    <circle cx="240" cy="360" r="28" fill="#ff8bd2"/>
    <circle cx="360" cy="420" r="18" fill="#ffd27a"/>
    <circle cx="1320" cy="320" r="24" fill="#ffd27a"/>
    <circle cx="1240" cy="540" r="16" fill="#ff8bd2"/>
    <circle cx="280" cy="840" r="22" fill="#ffd27a"/>
    <circle cx="1380" cy="920" r="28" fill="#ffd27a"/>
    <circle cx="980" cy="260" r="14" fill="#ff8bd2"/>
  </g>

  <!-- Ground shadow -->
  <ellipse cx="800" cy="1680" rx="420" ry="70" fill="rgba(0,0,0,0.5)"/>

  <!-- Woman in Red group -->
  <g id="woman" filter="url(#motion)">
    <!-- Hair / head silhouette -->
    <path d="M740,740 q-30,-160 140,-170 q120,0 150,120 q-40,40 -90,60 q-20,40 -60,70 q-80,0 -140,-80 z"
          fill="#0b0a0f"/>
    <!-- Neck / jaw highlight -->
    <path d="M940,820 q40,-20 70,-70 q30,0 40,30 q-10,40 -70,50 z" fill="rgba(255,210,180,0.18)"/>

    <!-- Coat (velvet) -->
    <path d="M620,820 q120,-40 210,-20 q140,20 260,120 q10,200 -30,420 q-230,120 -520,80 q-40,-200 -10,-420 q30,-120 90,-180 z"
          fill="url(#coatGrad)"/>
    <!-- Coat sheen folds -->
    <g opacity="0.6">
      <path d="M740,860 q40,260 20,520" stroke="url(#coatSheen)" stroke-width="18" fill="none"/>
      <path d="M860,880 q60,260 40,520" stroke="url(#coatSheen)" stroke-width="14" fill="none"/>
      <path d="M980,930 q60,240 50,480" stroke="url(#coatSheen)" stroke-width="12" fill="none"/>
    </g>

    <!-- Sleeve and cuff -->
    <path d="M1060,1010 q120,60 200,160 q-40,40 -120,20 q-80,-20 -140,-80 q20,-50 60,-100 z" fill="#8e0728"/>
    <rect x="1080" y="1050" width="60" height="40" rx="6" fill="#5a0418"/>

    <!-- Sun insignia on cuff -->
    <g transform="translate(1108,1070)">
      <circle cx="0" cy="0" r="20" fill="url(#gold)" filter="url(#glow)"/>
      <!-- 12 rays -->
      <g stroke="#d6af37" stroke-linecap="round" stroke-width="4">
        <line x1="0" y1="-34" x2="0" y2="-20"/>
        <line x1="0" y1="20"  x2="0" y2="34"/>
        <line x1="-34" y1="0" x2="-20" y2="0"/>
        <line x1="20" y1="0"  x2="34"  y2="0"/>
        <line x1="-24" y1="-24" x2="-14" y2="-14"/>
        <line x1="24"  y1="-24" x2="14"  y2="-14"/>
        <line x1="-24" y1="24"  x2="-14" y2="14"/>
        <line x1="24"  y1="24"  x2="14"  y2="14"/>
      </g>
    </g>
  </g>

  <!-- Foreground faint lens fade -->
  <rect width="1600" height="2000" fill="url(#vignette)"/>
</svg>
