<?xml version="1.0" encoding="UTF-8"?>
<svg xmlns="http://www.w3.org/2000/svg" viewBox="0 0 3000 1000" role="img" aria-labelledby="title desc">
  <title id="title">A Blind Man Singing — Song Header (Pop Song Summer)</title>
  <desc id="desc">Dark stage with a warm spotlight cone, minimal singer silhouette with cane, radiating voice arcs, subtle braille-dot constellation, and faint sun-insignia halo. Designed to sit quietly behind a heading.</desc>
  <defs>
    <linearGradient id="night" x1="0%" y1="0%" x2="0%" y2="100%">
      <stop offset="0%"   stop-color="#0c1022"/>
      <stop offset="65%"  stop-color="#0a0f1f"/>
      <stop offset="100%" stop-color="#0a0c14"/>
    </linearGradient>
    <radialGradient id="spot" cx="40%" cy="36%" r="70%">
      <stop offset="0%"   stop-color="rgba(255,210,140,0.42)"/>
      <stop offset="100%" stop-color="rgba(255,170,100,0)"/>
    </radialGradient>
    <radialGradient id="bokehA" cx="50%" cy="50%" r="50%">
      <stop offset="0%" stop-color="rgba(180,150,255,0.35)"/>
      <stop offset="100%" stop-color="rgba(180,150,255,0)"/>
    </radialGradient>
    <radialGradient id="bokehB" cx="50%" cy="50%" r="50%">
      <stop offset="0%" stop-color="rgba(255,170,110,0.35)"/>
      <stop offset="100%" stop-color="rgba(255,170,110,0)"/>
    </radialGradient>
    <radialGradient id="sun" cx="50%" cy="50%" r="60%">
      <stop offset="0%" stop-color="#ffe789"/>
      <stop offset="70%" stop-color="#d6af37"/>
      <stop offset="100%" stop-color="rgba(168,122,34,0)"/>
    </radialGradient>
    <filter id="soft" x="-50%" y="-50%" width="200%" height="200%">
      <feGaussianBlur stdDeviation="10"/>
    </filter>
  </defs>

  <!-- Background -->
  <rect width="3000" height="1000" fill="url(#night)"/>

  <!-- Stage base -->
  <rect x="0" y="760" width="3000" height="240" fill="#0b0f1b" opacity="0.95"/>

  <!-- Spotlight cone -->
  <ellipse cx="1100" cy="380" rx="900" ry="420" fill="url(#spot)"/>

  <!-- Faint sun-insignia halo behind figure -->
  <g transform="translate(1100,540)" opacity="0.25">
    <circle cx="0" cy="0" r="86" fill="url(#sun)" filter="url(#soft)"/>
    <g stroke="#d6af37" stroke-linecap="round" stroke-width="8">
      <line x1="0" y1="-120" x2="0" y2="-80"/>
      <line x1="0" y1="80"  x2="0" y2="120"/>
      <line x1="-120" y1="0" x2="-80" y2="0"/>
      <line x1="80" y1="0"  x2="120" y2="0"/>
    </g>
  </g>

  <!-- Minimal singer silhouette -->
  <g transform="translate(1080,540)" fill="#0a0d16" stroke="#20263a" stroke-width="3" opacity="0.96">
    <circle cx="0" cy="-64" r="30" fill="#0d1020" stroke="#25304a"/>
    <rect x="-20" y="-40" width="40" height="84" rx="12" fill="#0d1020" stroke="#25304a"/>
    <rect x="-28" y="40" width="18" height="60" rx="8"/>
    <rect x="10" y="40" width="18" height="60" rx="8"/>
    <!-- cane -->
    <line x1="18" y1="30" x2="86" y2="140" stroke="#44506e" stroke-width="6" stroke-linecap="round"/>
  </g>

  <!-- Voice arcs -->
  <g stroke="#ffd58a" stroke-width="5" fill="none" opacity="0.85">
    <path d="M1140,480 C1240,450 1320,520 1400,500"/>
    <path d="M1140,520 C1270,490 1360,560 1450,540" opacity="0.7"/>
    <path d="M1140,560 C1290,540 1390,600 1480,586" opacity="0.5"/>
  </g>

  <!-- Braille-like constellation (subtle) -->
  <g opacity="0.55">
    <circle cx="1540" cy="320" r="5" fill="url(#bokehA)"/>
    <circle cx="1560" cy="350" r="5" fill="url(#bokehA)"/>
    <circle cx="1580" cy="320" r="5" fill="url(#bokehA)"/>
    <circle cx="1600" cy="350" r="5" fill="url(#bokehA)"/>
    <circle cx="1620" cy="320" r="5" fill="url(#bokehA)"/>
    <circle cx="1640" cy="350" r="5" fill="url(#bokehA)"/>
  </g>

  <!-- Bokeh -->
  <g opacity="0.8">
    <circle cx="820" cy="420" r="12" fill="url(#bokehA)"/>
    <circle cx="1320" cy="460" r="10" fill="url(#bokehB)"/>
    <circle cx="1780" cy="400" r="12" fill="url(#bokehA)"/>
    <circle cx="2060" cy="460" r="10" fill="url(#bokehB)"/>
    <circle cx="2360" cy="420" r="14" fill="url(#bokehA)"/>
  </g>

  <!-- Bottom fade for title legibility -->
  <linearGradient id="fade" x1="0%" y1="0%" x2="0%" y2="100%">
    <stop offset="0%" stop-color="rgba(0,0,0,0)"/>
    <stop offset="100%" stop-color="rgba(0,0,0,0.60)"/>
  </linearGradient>
  <rect x="0" y="720" width="3000" height="280" fill="url(#fade)"/>
</svg>
