<?xml version="1.0" encoding="UTF-8"?>
<svg xmlns="http://www.w3.org/2000/svg" viewBox="0 0 3000 1000" role="img" aria-labelledby="title desc">
  <title id="title">On the Corner, Reading Poetry — Song Header (Pop Song Summer)</title>
  <desc id="desc">Night corner with warm streetlight glow, chalk sun insignia on pavement, a crate with scattered pages, faint verse lines, and ember/bokeh—designed to sit quietly behind a title.</desc>
  <defs>
    <linearGradient id="night" x1="0%" y1="0%" x2="0%" y2="100%">
      <stop offset="0%"   stop-color="#0c1022"/>
      <stop offset="65%"  stop-color="#0a0f1f"/>
      <stop offset="100%" stop-color="#0a0c14"/>
    </linearGradient>
    <radialGradient id="lamp" cx="40%" cy="58%" r="60%">
      <stop offset="0%"   stop-color="rgba(255,205,120,0.35)"/>
      <stop offset="100%" stop-color="rgba(255,160,80,0)"/>
    </radialGradient>
    <radialGradient id="chalkGlow" cx="50%" cy="50%" r="60%">
      <stop offset="0%" stop-color="rgba(255,242,208,0.7)"/>
      <stop offset="100%" stop-color="rgba(255,242,208,0)"/>
    </radialGradient>
    <radialGradient id="bokehA" cx="50%" cy="50%" r="50%">
      <stop offset="0%" stop-color="rgba(180,150,255,0.35)"/>
      <stop offset="100%" stop-color="rgba(180,150,255,0)"/>
    </radialGradient>
    <radialGradient id="bokehB" cx="50%" cy="50%" r="50%">
      <stop offset="0%" stop-color="rgba(255,170,110,0.35)"/>
      <stop offset="100%" stop-color="rgba(255,170,110,0)"/>
    </radialGradient>
  </defs>

  <rect width="3000" height="1000" fill="url(#night)"/>
  <path d="M0,820 L1200,640 L3000,820 L3000,1000 L0,1000 Z" fill="#0f1424" opacity="0.85"/>
  <path d="M0,1000 L0,820 L600,720 L600,1000 Z" fill="#0b0f1c" opacity="0.9"/>
  <ellipse cx="1200" cy="640" rx="620" ry="280" fill="url(#lamp)"/>

  <g transform="translate(1580,740)" opacity="0.9">
    <circle cx="0" cy="0" r="78" fill="url(#chalkGlow)"/>
    <g stroke="rgba(249,242,208,0.9)" stroke-linecap="round">
      <g stroke-width="10">
        <line x1="0" y1="-118" x2="0" y2="-84"/>
        <line x1="0" y1="84" x2="0" y2="118"/>
        <line x1="-118" y1="0" x2="-84" y2="0"/>
        <line x1="84" y1="0" x2="118" y2="0"/>
      </g>
      <circle cx="0" cy="0" r="140" fill="none" stroke-dasharray="12 16" stroke-width="4" opacity="0.8"/>
    </g>
  </g>

  <g transform="translate(420,760)" opacity="0.92">
    <rect x="0" y="0" width="140" height="90" rx="8" fill="#0b0e18" stroke="#20273c" stroke-width="3"/>
    <g stroke="#20273c">
      <line x1="20" y1="16" x2="20" y2="74"/>
      <line x1="50" y1="16" x2="50" y2="74"/>
      <line x1="80" y1="16" x2="80" y2="74"/>
      <line x1="110" y1="16" x2="110" y2="74"/>
      <line x1="10" y1="28" x2="130" y2="28"/>
      <line x1="10" y1="46" x2="130" y2="46"/>
      <line x1="10" y1="64" x2="130" y2="64"/>
    </g>
  </g>
  <g transform="translate(540,730) rotate(-8)" opacity="0.95">
    <rect x="0" y="0" width="120" height="72" rx="6" fill="#f7f7fb" stroke="#d8d8e2"/>
    <rect x="12" y="18" width="96" height="8" fill="#9090a4" opacity="0.9"/>
    <rect x="12" y="34" width="86" height="8" fill="#9090a4" opacity="0.7"/>
  </g>
  <g transform="translate(610,780) rotate(6)" opacity="0.9">
    <rect x="0" y="0" width="136" height="78" rx="6" fill="#f7f7fb" stroke="#d8d8e2"/>
    <rect x="14" y="20" width="102" height="8" fill="#9090a4" opacity="0.9"/>
    <rect x="14" y="38" width="92" height="8" fill="#9090a4" opacity="0.7"/>
  </g>

  <g stroke="rgba(230,235,245,0.45)" stroke-width="3" fill="none">
    <path d="M820,620 C920,580 1020,660 1120,620"/>
    <path d="M880,660 C980,620 1080,700 1180,660"/>
  </g>

  <g opacity="0.8">
    <circle cx="960" cy="540" r="12" fill="url(#bokehA)"/>
    <circle cx="1240" cy="600" r="10" fill="url(#bokehB)"/>
    <circle cx="1860" cy="560" r="12" fill="url(#bokehA)"/>
    <circle cx="2140" cy="600" r="10" fill="url(#bokehB)"/>
    <circle cx="2460" cy="560" r="14" fill="url(#bokehA)"/>
  </g>

  <linearGradient id="fade" x1="0%" y1="0%" x2="0%" y2="100%">
    <stop offset="0%" stop-color="rgba(0,0,0,0)"/>
    <stop offset="100%" stop-color="rgba(0,0,0,0.60)"/>
  </linearGradient>
  <rect x="0" y="720" width="3000" height="280" fill="url(#fade)"/>
</svg>
